# xmcd
#
# Track frame offsets: 
#        150
#        25699
#        46911
#        90383
#        111068
#        165672
#        189720
#
# Disc length: 3025 seconds
#
# Revision: 0
# Processed by: cddbd v1.5.1PL0 Copyright (c) Steve Scherf et al.
# Submitted via: ExactAudioCopy v0.95a4
#
DISCID=4b0bcf07
DTITLE=Van Morrison - Torquay
DYEAR=2001
DGENRE=Celtic
TTITLE0=Georgia On My Mind
TTITLE1=Bright Side Of The Road
TTITLE2=It's A Man's Man's Man's World
TTITLE3=Precious Time
TTITLE4=It's All In The Game
TTITLE5=Stand By Me
TTITLE6=Sitting On Top Of The World
EXTD=
EXTT0=
EXTT1=
EXTT2=
EXTT3=
EXTT4=
EXTT5=
EXTT6=
PLAYORDER=
